<mxfile host="app.diagrams.net" agent="Mozilla/5.0 (Windows NT 10.0; Win64; x64) AppleWebKit/537.36 (KHTML, like Gecko) Chrome/136.0.0.0 Safari/537.36 Edg/136.0.0.0" version="27.0.9">
  <diagram name="第 1 页" id="gvTcoRaNtvIjuNjoMNt6">
    <mxGraphModel dx="941" dy="789" grid="1" gridSize="10" guides="1" tooltips="1" connect="1" arrows="1" fold="1" page="1" pageScale="1" pageWidth="827" pageHeight="1169" math="0" shadow="0">
      <root>
        <mxCell id="0" />
        <mxCell id="1" parent="0" />
        <mxCell id="dMSZJxJyq0mz-XRWlp29-2" value="&lt;font style=&quot;font-size: 18px;&quot;&gt;输入嵌入&lt;/font&gt;" style="rounded=1;whiteSpace=wrap;html=1;" vertex="1" parent="1">
          <mxGeometry x="174" y="977" width="160" height="60" as="geometry" />
        </mxCell>
        <mxCell id="dMSZJxJyq0mz-XRWlp29-3" value="" style="shape=orEllipse;perimeter=ellipsePerimeter;whiteSpace=wrap;html=1;backgroundOutline=1;" vertex="1" parent="1">
          <mxGeometry x="244" y="912" width="20" height="20" as="geometry" />
        </mxCell>
        <mxCell id="dMSZJxJyq0mz-XRWlp29-4" value="" style="ellipse;whiteSpace=wrap;html=1;aspect=fixed;" vertex="1" parent="1">
          <mxGeometry x="134" y="902" width="40" height="40" as="geometry" />
        </mxCell>
        <mxCell id="dMSZJxJyq0mz-XRWlp29-5" value="&lt;font style=&quot;font-size: 18px;&quot;&gt;输出嵌入&lt;/font&gt;" style="rounded=1;whiteSpace=wrap;html=1;" vertex="1" parent="1">
          <mxGeometry x="494" y="977" width="160" height="60" as="geometry" />
        </mxCell>
        <mxCell id="dMSZJxJyq0mz-XRWlp29-6" value="" style="shape=orEllipse;perimeter=ellipsePerimeter;whiteSpace=wrap;html=1;backgroundOutline=1;" vertex="1" parent="1">
          <mxGeometry x="564" y="912" width="20" height="20" as="geometry" />
        </mxCell>
        <mxCell id="dMSZJxJyq0mz-XRWlp29-7" value="" style="ellipse;whiteSpace=wrap;html=1;aspect=fixed;" vertex="1" parent="1">
          <mxGeometry x="654" y="902" width="40" height="40" as="geometry" />
        </mxCell>
        <mxCell id="dMSZJxJyq0mz-XRWlp29-8" value="&lt;font style=&quot;font-size: 18px;&quot;&gt;多头&lt;/font&gt;&lt;div&gt;&lt;font style=&quot;font-size: 18px;&quot;&gt;注意力机制&lt;/font&gt;&lt;/div&gt;" style="rounded=1;whiteSpace=wrap;html=1;" vertex="1" parent="1">
          <mxGeometry x="174" y="782" width="160" height="60" as="geometry" />
        </mxCell>
        <mxCell id="dMSZJxJyq0mz-XRWlp29-9" value="&lt;font style=&quot;font-size: 18px;&quot;&gt;残差连接&lt;/font&gt;&lt;div&gt;&lt;font style=&quot;font-size: 18px;&quot;&gt;和归一化&lt;/font&gt;&lt;/div&gt;" style="rounded=1;whiteSpace=wrap;html=1;" vertex="1" parent="1">
          <mxGeometry x="174" y="692" width="160" height="60" as="geometry" />
        </mxCell>
        <mxCell id="dMSZJxJyq0mz-XRWlp29-10" value="&lt;font style=&quot;font-size: 18px;&quot;&gt;掩码的多头&lt;/font&gt;&lt;div&gt;&lt;font style=&quot;font-size: 18px;&quot;&gt;注意力机制&lt;/font&gt;&lt;/div&gt;" style="rounded=1;whiteSpace=wrap;html=1;" vertex="1" parent="1">
          <mxGeometry x="494" y="782" width="160" height="60" as="geometry" />
        </mxCell>
        <mxCell id="dMSZJxJyq0mz-XRWlp29-13" value="&lt;font style=&quot;font-size: 18px;&quot;&gt;残差连接&lt;/font&gt;&lt;div&gt;&lt;font style=&quot;font-size: 18px;&quot;&gt;和归一化&lt;/font&gt;&lt;/div&gt;" style="rounded=1;whiteSpace=wrap;html=1;" vertex="1" parent="1">
          <mxGeometry x="494" y="492" width="160" height="60" as="geometry" />
        </mxCell>
        <mxCell id="dMSZJxJyq0mz-XRWlp29-14" value="&lt;span style=&quot;font-size: 18px;&quot;&gt;前向传播&lt;/span&gt;" style="rounded=1;whiteSpace=wrap;html=1;" vertex="1" parent="1">
          <mxGeometry x="494" y="402" width="160" height="60" as="geometry" />
        </mxCell>
        <mxCell id="dMSZJxJyq0mz-XRWlp29-15" value="&lt;span style=&quot;font-size: 18px;&quot;&gt;残差连接&lt;/span&gt;&lt;div&gt;&lt;span style=&quot;font-size: 18px;&quot;&gt;和归一化&lt;/span&gt;&lt;/div&gt;" style="rounded=1;whiteSpace=wrap;html=1;" vertex="1" parent="1">
          <mxGeometry x="494" y="312" width="160" height="60" as="geometry" />
        </mxCell>
        <mxCell id="dMSZJxJyq0mz-XRWlp29-16" value="&lt;font style=&quot;font-size: 18px;&quot;&gt;线性层&lt;/font&gt;" style="rounded=1;whiteSpace=wrap;html=1;" vertex="1" parent="1">
          <mxGeometry x="494" y="222" width="160" height="60" as="geometry" />
        </mxCell>
        <mxCell id="dMSZJxJyq0mz-XRWlp29-17" value="&lt;font style=&quot;font-size: 18px;&quot;&gt;Softmax函数&lt;/font&gt;" style="rounded=1;whiteSpace=wrap;html=1;" vertex="1" parent="1">
          <mxGeometry x="494" y="132" width="160" height="60" as="geometry" />
        </mxCell>
        <mxCell id="dMSZJxJyq0mz-XRWlp29-18" value="&lt;font style=&quot;font-size: 18px;&quot;&gt;前向传播&lt;/font&gt;" style="rounded=1;whiteSpace=wrap;html=1;" vertex="1" parent="1">
          <mxGeometry x="174" y="402" width="160" height="60" as="geometry" />
        </mxCell>
        <mxCell id="dMSZJxJyq0mz-XRWlp29-19" value="&lt;font style=&quot;font-size: 18px;&quot;&gt;残差连接&lt;/font&gt;&lt;div&gt;&lt;font style=&quot;font-size: 18px;&quot;&gt;和归一化&lt;/font&gt;&lt;/div&gt;" style="rounded=1;whiteSpace=wrap;html=1;" vertex="1" parent="1">
          <mxGeometry x="174" y="312" width="160" height="60" as="geometry" />
        </mxCell>
        <mxCell id="dMSZJxJyq0mz-XRWlp29-20" value="&lt;font style=&quot;font-size: 18px;&quot;&gt;残差连接&lt;/font&gt;&lt;div&gt;&lt;font style=&quot;font-size: 18px;&quot;&gt;和归一化&lt;/font&gt;&lt;/div&gt;" style="rounded=1;whiteSpace=wrap;html=1;" vertex="1" parent="1">
          <mxGeometry x="494" y="692" width="160" height="60" as="geometry" />
        </mxCell>
        <mxCell id="dMSZJxJyq0mz-XRWlp29-21" value="&lt;font style=&quot;font-size: 18px;&quot;&gt;多头&lt;/font&gt;&lt;div&gt;&lt;font style=&quot;font-size: 18px;&quot;&gt;注意力机制&lt;/font&gt;&lt;/div&gt;" style="rounded=1;whiteSpace=wrap;html=1;" vertex="1" parent="1">
          <mxGeometry x="494" y="580" width="160" height="60" as="geometry" />
        </mxCell>
      </root>
    </mxGraphModel>
  </diagram>
</mxfile>
